# xmcd
#
# Track frame offsets:
#	150
#	17552
#	29423
#	48230
#	64790
#	87620
#	107200
#	121760
#	140960
#	158089
#	175299
#	193665
#	211999
#	224992
#
# Disc length: 3200 seconds
#
# Revision: 1
# Processed by: cddbd v1.5.1PL0 Copyright (c) Steve Scherf et al.
# Submitted via: CDex 1.50Beta5
#
DISCID=d50c7e0e
DTITLE=さまざまなアーティスト - an EXtra2
DYEAR=1900
DGENRE=
TTITLE0=Mr.OMERI/PROJECT CB
TTITLE1=SESAMI/Marvel
TTITLE2=GIEMSA/Mouth yank
TTITLE3=SUGGEST/グラップラー
TTITLE4=TC/THE GREATEST GATE
TTITLE5=ESSENCIAL/ESSENCE
TTITLE6=DOUBLES/YOU KNOW?
TTITLE7=SYNTAX ERA/SURE SHOT
TTITLE8=YOU YORK/I
TTITLE9=SPYKK LAW/俺注意報
TTITLE10=K,G,E FRESH/2th STREET
TTITLE11=wu xing qiu/nuu VANGUARD
TTITLE12=JIMMY HONDA/JAPANESE ZERO
TTITLE13=麻起/NO MURDER
EXTD=
EXTT0=
EXTT1=
EXTT2=
EXTT3=
EXTT4=
EXTT5=
EXTT6=
EXTT7=
EXTT8=
EXTT9=
EXTT10=
EXTT11=
EXTT12=
EXTT13=
PLAYORDER=
